<svg xmlns="http://www.w3.org/2000/svg" width="720" height="886" viewBox="0 0 720 886" font-family="-apple-system,BlinkMacSystemFont,Segoe UI,Helvetica,Arial,sans-serif"><style>svg{--cf-bg:#0d1117;--cf-bg-alt:#161b22;--cf-border:#21262d;--cf-text:#e6edf3;--cf-text-dim:#8b949e;--cf-text-faint:#6e7681;--cf-accent:#a78bfa;--cf-accent-soft:rgba(167,139,250,0.16);--cf-green:#3fb950;--cf-amber:#d29922;--cf-red:#f85149;--cf-spark:#a78bfa;--cf-spark-bg:rgba(167,139,250,0.18)}@media (prefers-color-scheme: light){svg{--cf-bg:#ffffff;--cf-bg-alt:#f6f8fa;--cf-border:#d0d7de;--cf-text:#1f2328;--cf-text-dim:#656d76;--cf-text-faint:#8c959f;--cf-accent:#6f42c1;--cf-accent-soft:rgba(111,66,193,0.12);--cf-green:#1a7f37;--cf-amber:#9a6700;--cf-red:#cf222e;--cf-spark:#6f42c1;--cf-spark-bg:rgba(111,66,193,0.12)}}</style><rect width="720" height="886" rx="14" fill="var(--cf-bg)" stroke="var(--cf-border)"/><g transform="translate(22,26)"><text x="0" y="0" font-size="18" font-weight="700" fill="var(--cf-text)">braedonsaunders/codeflow</text><text x="676" y="0" text-anchor="end" font-size="11" fill="var(--cf-text-faint)" font-family="ui-monospace,SFMono-Regular,Menlo,monospace">@gallery</text></g><g transform="translate(22,60)"><rect width="676" height="110" rx="10" fill="var(--cf-bg-alt)" stroke="var(--cf-border)"/><text x="16" y="22" font-size="11" font-weight="500" fill="var(--cf-text-dim)" letter-spacing="0.6">HEALTH</text><text x="16" y="78" font-size="64" font-weight="700" fill="var(--cf-green)" font-family="ui-monospace,SFMono-Regular,Menlo,monospace">B</text><text x="660" y="78" text-anchor="end" font-size="22" font-weight="600" fill="var(--cf-text)">80</text><text x="660" y="94" text-anchor="end" font-size="10" fill="var(--cf-text-faint)" letter-spacing="0.6">SCORE / 100</text></g><g transform="translate(22,184)"><rect width="676" height="88" rx="10" fill="var(--cf-bg-alt)" stroke="var(--cf-border)"/><g transform="translate(16,16)"><text x="0" y="0" font-size="10" font-weight="500" fill="var(--cf-text-dim)" letter-spacing="0.6">FILES</text><text x="0" y="28" font-size="22" font-weight="700" fill="var(--cf-text)">38</text><g transform="translate(0,38)"><svg width="80" height="18" viewBox="0 0 80 18" preserveAspectRatio="none"><path d="M0 9 L40 9 L80 9 L80 18 L0 18 Z" fill="var(--cf-spark-bg)" stroke="none"/><path d="M0 9 L40 9 L80 9" fill="none" stroke="var(--cf-spark)" stroke-width="1.4" stroke-linecap="round" stroke-linejoin="round"/></svg></g></g><g transform="translate(177,16)"><text x="0" y="0" font-size="10" font-weight="500" fill="var(--cf-text-dim)" letter-spacing="0.6">FNS</text><text x="0" y="28" font-size="22" font-weight="700" fill="var(--cf-text)">555</text><g transform="translate(0,38)"><svg width="80" height="18" viewBox="0 0 80 18" preserveAspectRatio="none"><path d="M0 9 L40 9 L80 9 L80 18 L0 18 Z" fill="var(--cf-spark-bg)" stroke="none"/><path d="M0 9 L40 9 L80 9" fill="none" stroke="var(--cf-spark)" stroke-width="1.4" stroke-linecap="round" stroke-linejoin="round"/></svg></g></g><g transform="translate(338,16)"><text x="0" y="0" font-size="10" font-weight="500" fill="var(--cf-text-dim)" letter-spacing="0.6">LOC</text><text x="0" y="28" font-size="22" font-weight="700" fill="var(--cf-text)">10.2K</text><g transform="translate(0,38)"><svg width="80" height="18" viewBox="0 0 80 18" preserveAspectRatio="none"><path d="M0 9 L40 9 L80 9 L80 18 L0 18 Z" fill="var(--cf-spark-bg)" stroke="none"/><path d="M0 9 L40 9 L80 9" fill="none" stroke="var(--cf-spark)" stroke-width="1.4" stroke-linecap="round" stroke-linejoin="round"/></svg></g></g><g transform="translate(499,16)"><text x="0" y="0" font-size="10" font-weight="500" fill="var(--cf-text-dim)" letter-spacing="0.6">LANGS</text><text x="0" y="28" font-size="22" font-weight="700" fill="var(--cf-text)">7</text><g transform="translate(0,38)"><svg width="80" height="18" viewBox="0 0 80 18" preserveAspectRatio="none"><path d="M0 9 L40 9 L80 9 L80 18 L0 18 Z" fill="var(--cf-spark-bg)" stroke="none"/><path d="M0 9 L40 9 L80 9" fill="none" stroke="var(--cf-spark)" stroke-width="1.4" stroke-linecap="round" stroke-linejoin="round"/></svg></g></g></g><g transform="translate(22,286)"><rect width="676" height="152" rx="10" fill="var(--cf-bg-alt)" stroke="var(--cf-border)"/><text x="16" y="20" font-size="11" font-weight="500" fill="var(--cf-text-dim)" letter-spacing="0.6">LANGUAGES</text><text x="16" y="39" font-size="11" font-weight="600" fill="var(--cf-text)" font-family="ui-monospace,SFMono-Regular,Menlo,monospace">.html</text><rect x="80" y="28" width="456" height="10" rx="2" fill="var(--cf-border)" opacity="0.5"/><rect x="80" y="28" width="306" height="10" rx="2" fill="var(--cf-accent)"/><text x="660" y="39" text-anchor="end" font-size="11" font-weight="600" fill="var(--cf-text)" font-family="ui-monospace,SFMono-Regular,Menlo,monospace">67%</text><text x="16" y="61" font-size="11" font-weight="600" fill="var(--cf-text)" font-family="ui-monospace,SFMono-Regular,Menlo,monospace">.js</text><rect x="80" y="50" width="456" height="10" rx="2" fill="var(--cf-border)" opacity="0.5"/><rect x="80" y="50" width="87" height="10" rx="2" fill="var(--cf-spark)"/><text x="660" y="61" text-anchor="end" font-size="11" font-weight="600" fill="var(--cf-text)" font-family="ui-monospace,SFMono-Regular,Menlo,monospace">19%</text><text x="16" y="83" font-size="11" font-weight="600" fill="var(--cf-text)" font-family="ui-monospace,SFMono-Regular,Menlo,monospace">.mjs</text><rect x="80" y="72" width="456" height="10" rx="2" fill="var(--cf-border)" opacity="0.5"/><rect x="80" y="72" width="36" height="10" rx="2" fill="var(--cf-green)"/><text x="660" y="83" text-anchor="end" font-size="11" font-weight="600" fill="var(--cf-text)" font-family="ui-monospace,SFMono-Regular,Menlo,monospace">8%</text><text x="16" y="105" font-size="11" font-weight="600" fill="var(--cf-text)" font-family="ui-monospace,SFMono-Regular,Menlo,monospace">.md</text><rect x="80" y="94" width="456" height="10" rx="2" fill="var(--cf-border)" opacity="0.5"/><rect x="80" y="94" width="23" height="10" rx="2" fill="var(--cf-amber)"/><text x="660" y="105" text-anchor="end" font-size="11" font-weight="600" fill="var(--cf-text)" font-family="ui-monospace,SFMono-Regular,Menlo,monospace">5%</text><text x="16" y="127" font-size="11" font-weight="600" fill="var(--cf-text)" font-family="ui-monospace,SFMono-Regular,Menlo,monospace">.yml</text><rect x="80" y="116" width="456" height="10" rx="2" fill="var(--cf-border)" opacity="0.5"/><rect x="80" y="116" width="5" height="10" rx="2" fill="var(--cf-text-dim)"/><text x="660" y="127" text-anchor="end" font-size="11" font-weight="600" fill="var(--cf-text)" font-family="ui-monospace,SFMono-Regular,Menlo,monospace">1%</text></g><g transform="translate(22,452)"><rect width="676" height="88" rx="10" fill="var(--cf-bg-alt)" stroke="var(--cf-border)"/><g transform="translate(16,22)"><text x="0" y="0" font-size="9" font-weight="500" fill="var(--cf-text-dim)" letter-spacing="0.6">CONNECTIONS</text><text x="0" y="18" font-size="16" font-weight="700" fill="var(--cf-text)">142</text></g><g transform="translate(230.66666666666666,22)"><text x="0" y="0" font-size="9" font-weight="500" fill="var(--cf-text-dim)" letter-spacing="0.6">TEST FILES</text><text x="0" y="18" font-size="16" font-weight="700" fill="var(--cf-text)">3</text></g><g transform="translate(445.3333333333333,22)"><text x="0" y="0" font-size="9" font-weight="500" fill="var(--cf-text-dim)" letter-spacing="0.6">FOLDERS</text><text x="0" y="18" font-size="16" font-weight="700" fill="var(--cf-text)">3</text></g><g transform="translate(16,54)"><text x="0" y="0" font-size="9" font-weight="500" fill="var(--cf-text-dim)" letter-spacing="0.6">AVG FN LINES</text><text x="0" y="18" font-size="16" font-weight="700" fill="var(--cf-text)">15.8</text></g><g transform="translate(230.66666666666666,54)"><text x="0" y="0" font-size="9" font-weight="500" fill="var(--cf-text-dim)" letter-spacing="0.6">LONGEST FN</text><text x="0" y="18" font-size="16" font-weight="700" fill="var(--cf-text)">16L</text></g><g transform="translate(445.3333333333333,54)"><text x="0" y="0" font-size="9" font-weight="500" fill="var(--cf-text-dim)" letter-spacing="0.6">PATTERNS</text><text x="0" y="18" font-size="16" font-weight="700" fill="var(--cf-text)">7</text></g></g><g transform="translate(22,554)"><rect width="676" height="94" rx="10" fill="var(--cf-bg-alt)" stroke="var(--cf-border)"/><text x="16" y="20" font-size="11" font-weight="500" fill="var(--cf-text-dim)" letter-spacing="0.6">TOP FOLDERS · BY FILE COUNT</text><text x="16" y="39" font-size="11" fill="var(--cf-text)" font-family="ui-monospace,SFMono-Regular,Menlo,monospace">tests</text><rect x="120" y="28" width="456" height="10" rx="2" fill="var(--cf-border)" opacity="0.5"/><rect x="120" y="28" width="456" height="10" rx="2" fill="var(--cf-spark)"/><text x="660" y="39" text-anchor="end" font-size="11" font-weight="600" fill="var(--cf-text)" font-family="ui-monospace,SFMono-Regular,Menlo,monospace">20</text><text x="16" y="57" font-size="11" fill="var(--cf-text)" font-family="ui-monospace,SFMono-Regular,Menlo,monospace">card</text><rect x="120" y="46" width="456" height="10" rx="2" fill="var(--cf-border)" opacity="0.5"/><rect x="120" y="46" width="365" height="10" rx="2" fill="var(--cf-spark)"/><text x="660" y="57" text-anchor="end" font-size="11" font-weight="600" fill="var(--cf-text)" font-family="ui-monospace,SFMono-Regular,Menlo,monospace">16</text><text x="16" y="75" font-size="11" fill="var(--cf-text)" font-family="ui-monospace,SFMono-Regular,Menlo,monospace">root</text><rect x="120" y="64" width="456" height="10" rx="2" fill="var(--cf-border)" opacity="0.5"/><rect x="120" y="64" width="46" height="10" rx="2" fill="var(--cf-spark)"/><text x="660" y="75" text-anchor="end" font-size="11" font-weight="600" fill="var(--cf-text)" font-family="ui-monospace,SFMono-Regular,Menlo,monospace">2</text></g><g transform="translate(22,662)"><rect width="676" height="94" rx="10" fill="var(--cf-bg-alt)" stroke="var(--cf-border)"/><text x="16" y="20" font-size="11" font-weight="500" fill="var(--cf-text-dim)" letter-spacing="0.6">FRAGILITY · TOP BLAST RADIUS</text><text x="16" y="34" font-size="12" fill="var(--cf-text)" font-family="ui-monospace,SFMono-Regular,Menlo,monospace">index.html</text><text x="660" y="34" text-anchor="end" font-size="12" font-weight="600" fill="var(--cf-accent)">20 direct · 25 transitive</text><text x="16" y="52" font-size="12" fill="var(--cf-text)" font-family="ui-monospace,SFMono-Regular,Menlo,monospace">card/lib/collect.js</text><text x="660" y="52" text-anchor="end" font-size="12" font-weight="600" fill="var(--cf-accent)">5 direct · 24 transitive</text><text x="16" y="70" font-size="12" fill="var(--cf-text)" font-family="ui-monospace,SFMono-Regular,Menlo,monospace">tests/fixtures/golden-world/src/math.js</text><text x="660" y="70" text-anchor="end" font-size="12" font-weight="600" fill="var(--cf-accent)">2 direct · 26 transitive</text></g><g transform="translate(22,770)"><rect width="676" height="70" rx="10" fill="var(--cf-bg-alt)" stroke="var(--cf-border)"/><g transform="translate(16,16)"><text x="0" y="0" font-size="10" font-weight="500" fill="var(--cf-text-dim)" letter-spacing="0.6">CIRCULAR DEPS</text><text x="0" y="28" font-size="20" font-weight="700" fill="var(--cf-text)">1</text></g><g transform="translate(230.66666666666666,16)"><text x="0" y="0" font-size="10" font-weight="500" fill="var(--cf-text-dim)" letter-spacing="0.6">DEAD CODE</text><text x="0" y="28" font-size="20" font-weight="700" fill="var(--cf-text)">0.7%</text></g><g transform="translate(445.3333333333333,16)"><text x="0" y="0" font-size="10" font-weight="500" fill="var(--cf-text-dim)" letter-spacing="0.6">AVG COUPLING</text><text x="0" y="28" font-size="20" font-weight="700" fill="var(--cf-text)">3.7</text></g></g><g transform="translate(22,872)"><text x="0" y="0" font-size="10" fill="var(--cf-text-faint)">updated 2026-04-28</text><a href="https://github.com/braedonsaunders/codeflow" target="_blank"><text x="676" y="0" text-anchor="end" font-size="10" fill="var(--cf-text-faint)">powered by <tspan font-weight="600" fill="var(--cf-accent)">codeflow</tspan></text></a></g></svg>